<?xml version="1.0" encoding="UTF-8"?>
<svg width="92px" height="92px" viewBox="0 0 92 92" version="1.1" xmlns="http://www.w3.org/2000/svg" xmlns:xlink="http://www.w3.org/1999/xlink">
    <title>svg应用图标</title>
    <defs>
        <linearGradient x1="50%" y1="2.81952648%" x2="50%" y2="100%" id="linearGradient-1">
            <stop stop-color="#5489F4" offset="0%"></stop>
            <stop stop-color="#0A59F7" offset="100%"></stop>
        </linearGradient>
    </defs>
    <g id="应用图标" stroke="none" stroke-width="1" fill="none" fill-rule="evenodd">
        <g id="编组-2">
            <rect id="矩形-2备份" fill="url(#linearGradient-1)" x="0" y="0" width="92" height="92" rx="20.5647059"></rect>
            <path d="M27.9476384,21.9648349 L28.2953955,21.9744977 C28.9271145,22.0152538 29.4711864,22.2570658 29.8676638,22.6505816 L30.0533254,22.859753 C30.5895775,23.3960051 30.818935,24.0713355 30.7240049,24.8044078 C30.655932,25.5078277 30.3664458,26.1215384 29.820751,26.663064 C26.9163985,29.0660699 24.6804242,31.9495271 23.1086133,35.3176902 C21.5351469,38.7066948 20.7491569,42.2652431 20.7491569,46 C20.7491569,49.7340872 21.5348512,53.2740287 23.108064,56.6279139 C24.6810613,59.9986225 26.9004261,62.8829331 29.7929796,65.3058833 C30.3435766,65.8105972 30.6524375,66.4401983 30.6991101,67.1636241 C30.7451429,67.8771318 30.544136,68.5274482 30.0641341,69.1291841 C29.5770534,69.6394591 28.9689865,69.9256082 28.270209,69.9721934 C27.5724834,70.0187084 26.93079,69.8166938 26.3590999,69.3636347 C22.9165539,66.44653 20.2328246,62.9558685 18.310908,58.8944494 C16.4068276,54.8324113 15.4541961,50.5319605 15.4541961,46 C15.4541961,41.4683307 16.4066993,37.1593876 18.310972,33.0788062 C20.2318092,28.9834364 22.9158312,25.4742589 26.3762481,22.542495 C26.6280207,22.343175 26.900713,22.1936941 27.2134606,22.0927852 L27.5402686,22.0080201 L27.8478553,21.9697048 L27.9476384,21.9648349 Z M63.6833569,21.9762108 C64.2835697,21.9181257 64.8411862,22.0415593 65.3351676,22.3414363 L65.6237519,22.542495 L66.482135,23.2802728 C68.4462893,25.0326889 70.1395781,27.0018908 71.5685478,29.1929778 C73.2004945,31.6952959 74.4341,34.3711314 75.2672931,37.2148964 C76.1195956,40.0619493 76.5458039,42.9909982 76.5458039,46 C76.5458039,49.0090018 76.1195956,51.9380507 75.2683993,54.7813688 C74.4339147,57.6295009 73.1999152,60.2971175 71.5673338,62.7822692 C69.9338646,65.2687723 67.9551183,67.4653622 65.6237519,69.3776815 C65.0684286,69.8173124 64.4181121,70.0183193 63.7046045,69.9722866 C62.967599,69.9247378 62.3498909,69.6035296 61.895495,69.0295558 C61.4552336,68.4734362 61.2552163,67.8145557 61.3008899,67.0838006 C61.3484386,66.3467951 61.6696468,65.729087 62.234778,65.2818151 C64.150702,63.7111027 65.7719467,61.9001379 67.0981667,59.8505467 C68.4136105,57.7908386 69.4257855,55.5934673 70.135018,53.2581943 C70.8434602,50.9082398 71.1976275,48.4895366 71.1976275,46 C71.1976275,43.5104634 70.8434602,41.0917602 70.1354122,38.7431082 C69.4263675,36.408449 68.3974939,34.2037198 67.0478392,32.127328 C65.7009258,30.0551536 64.078578,28.234327 62.177446,26.6615668 C61.611763,26.1901643 61.2949184,25.5686615 61.2493873,24.8576235 C61.1777623,24.1174987 61.4105237,23.4437157 61.895495,22.9172285 C62.3498909,22.3432547 62.967599,22.0220465 63.6833569,21.9762108 Z M54.0220912,29.8919836 C54.6523144,29.7496751 55.2612732,29.8367095 55.8197704,30.144112 L56.0719597,30.3008377 C58.7548288,32.0281644 60.8540495,34.2746988 62.3637606,37.0363838 C63.8533817,39.7949415 64.5988824,42.7861476 64.5988824,46 C64.5988824,48.1136325 64.2584716,50.1560968 63.5778669,52.124332 C62.8973136,54.0924188 61.9125341,55.8963139 60.6256253,57.5325253 C59.3567861,59.150755 57.8397216,60.5390989 56.0093475,61.7348322 C55.2656782,62.1066668 54.5556049,62.2114317 53.9274506,62.0246683 C53.2648084,61.8590078 52.7261173,61.4639676 52.3285206,60.8556998 C51.9291499,60.2214052 51.8192763,59.5255391 52.0041654,58.8334752 C52.141159,58.2463598 52.4418451,57.7611958 52.8870971,57.4011899 L53.1714432,57.200391 C54.439032,56.3891342 55.5364358,55.3930292 56.4659833,54.2099687 C57.397103,53.0249073 58.1068501,51.7406031 58.5961293,50.3571383 C59.0858282,48.9555862 59.3305294,47.5042549 59.3305294,46 C59.3305294,43.7354244 58.7824995,41.6107547 57.6835689,39.615773 C56.827566,38.0617985 55.7277963,36.7355136 54.3909818,35.6401813 L53.8035679,35.1849027 L53.1223786,34.6958127 C52.4934425,34.2998159 52.0912294,33.7391552 51.9473449,33.0437136 C51.8047879,32.3546883 51.9381312,31.6879718 52.3285206,31.0910845 C52.7241427,30.4627435 53.2996024,30.0551262 54.0220912,29.8919836 Z M37.4704029,29.8290685 L37.5861667,29.8359991 L37.9559366,29.8930478 C38.6656038,30.0586368 39.2252375,30.4722791 39.585494,31.0814817 C39.9820654,31.6880026 40.114484,32.3621337 39.9737098,33.0660047 C39.8321241,33.7739333 39.4439565,34.3440544 38.829936,34.7455082 C36.883657,35.9978964 35.3735571,37.6176684 34.291905,39.6119644 C33.2094208,41.6077947 32.6694706,43.7338487 32.6694706,46 C32.6694706,48.2639558 33.2171808,50.3789597 34.3140866,52.3533993 C35.4151961,54.3184563 36.9209226,55.9341515 38.8389648,57.2071901 C39.4080423,57.5865751 39.780705,58.1395584 39.9426189,58.8334752 C40.1075841,59.5404691 39.9869996,60.2278009 39.5952649,60.8499021 C39.2182035,61.4626268 38.660475,61.8627364 37.9761805,62.022069 C37.2638726,62.2120178 36.5680066,62.1021442 35.9280403,61.6991623 C33.245416,59.9719933 31.137682,57.716994 29.6120043,54.9413634 C28.0856823,52.1645608 27.3212941,49.180684 27.3212941,46 C27.3212941,42.7836907 28.0857619,39.7902926 29.6129069,37.030392 C31.138622,34.2730756 33.2460688,32.0275865 35.9053213,30.3161356 C36.1864687,30.1182912 36.482099,29.9783696 36.8147971,29.8980175 L37.1606876,29.837583 L37.4704029,29.8290685 Z M46,40.0398431 C47.6628988,40.0398431 49.0901865,40.6127685 50.2527506,41.7554294 C51.3872315,42.9098135 51.9601569,44.3371012 51.9601569,46 C51.9601569,47.666129 51.3670221,49.1037268 50.1994656,50.271249 C49.0458822,51.4447217 47.633404,52.0399804 46,52.0399804 C44.3672937,52.0399804 42.9392065,51.4365633 41.7513216,50.2486784 C40.5634367,49.0607935 39.9600196,47.6327063 39.9600196,46 C39.9600196,44.366596 40.5552783,42.9541178 41.7247138,41.8045373 C42.8962732,40.6329779 44.333871,40.0398431 46,40.0398431 Z" id="形状结合备份" fill="#FFFFFF" fill-rule="nonzero"></path>
        </g>
    </g>
</svg>