<?xml version="1.0" encoding="UTF-8"?>
<svg width="24px" height="24px" viewBox="0 0 24 24" version="1.1" xmlns="http://www.w3.org/2000/svg" xmlns:xlink="http://www.w3.org/1999/xlink">
    <title>svg细图标</title>
    <g id="细图标" stroke="none" stroke-width="1" fill="none" fill-rule="evenodd">
        <g id="dot_radiowaves_left_and_right" fill="#000000" fill-rule="nonzero">
            <rect id="矩形" opacity="0" x="0" y="0" width="24" height="24"></rect>
            <g id="编组" transform="translate(0.000000, 3.000000)" fill-opacity="0.90196079">
                <path d="M12,7.01 C11.44,7.01 10.9633333,7.20666667 10.57,7.6 C10.1766667,7.98666667 9.98,8.45333333 9.98,9 C9.98,9.54666667 10.18,10.02 10.58,10.42 C10.98,10.82 11.4533333,11.02 12,11.02 C12.5466667,11.02 13.0133333,10.8233333 13.4,10.43 C13.7933333,10.0366667 13.99,9.56 13.99,9 C13.99,8.44 13.8,7.96666667 13.42,7.58 C13.0333333,7.2 12.56,7.01 12,7.01 Z" id="路径"></path>
                <path d="M5.23,9 C5.23,10.1533333 5.50666667,11.2333333 6.06,12.24 C6.61333333,13.2466667 7.37666667,14.0633333 8.35,14.69 C8.53,14.8033333 8.72,14.8333333 8.92,14.78 C9.12,14.7333333 9.27333333,14.6233333 9.38,14.45 C9.49333333,14.27 9.52666667,14.08 9.48,13.88 C9.43333333,13.68 9.33,13.5266667 9.17,13.42 C8.41666667,12.92 7.82333333,12.2833333 7.39,11.51 C6.95666667,10.73 6.74,9.89333333 6.74,9 C6.74,8.10666667 6.95333333,7.26666667 7.38,6.48 C7.80666667,5.69333333 8.40333333,5.05333333 9.17,4.56 C9.34333333,4.44666667 9.45,4.29 9.49,4.09 C9.53,3.89 9.49333333,3.70333333 9.38,3.53 C9.27333333,3.35 9.12,3.23666667 8.92,3.19 C8.72,3.14333333 8.53,3.18333333 8.35,3.31 C7.37666667,3.93666667 6.61333333,4.75 6.06,5.75 C5.50666667,6.75 5.23,7.83333333 5.23,9 Z M14.59,14.45 C14.7033333,14.6233333 14.8533333,14.7333333 15.04,14.78 C15.22,14.8333333 15.4233333,14.8033333 15.65,14.69 C16.29,14.27 16.84,13.7666667 17.3,13.18 C17.7666667,12.5866667 18.1233333,11.9333333 18.37,11.22 C18.6166667,10.5066667 18.74,9.76666667 18.74,9 C18.74,7.83333333 18.47,6.75 17.93,5.75 C17.3833333,4.75 16.6233333,3.93666667 15.65,3.31 C15.47,3.18333333 15.2766667,3.14333333 15.07,3.19 C14.8633333,3.23666667 14.7033333,3.35 14.59,3.53 C14.4766667,3.70333333 14.44,3.88666667 14.48,4.08 C14.52,4.27333333 14.63,4.42666667 14.81,4.54 L14.83,4.56 C15.5833333,5.05333333 16.1766667,5.69333333 16.61,6.48 C17.0433333,7.26666667 17.26,8.10666667 17.26,9 C17.26,9.59333333 17.1633333,10.1666667 16.97,10.72 C16.7766667,11.2666667 16.4966667,11.7733333 16.13,12.24 C15.7633333,12.7066667 15.33,13.1 14.83,13.42 C14.6566667,13.5266667 14.5466667,13.68 14.5,13.88 C14.4466667,14.08 14.4766667,14.27 14.59,14.45 Z" id="形状"></path>
                <path d="M0.77,9 C0.77,10.6666667 1.12,12.2466667 1.82,13.74 C2.52666667,15.2333333 3.51333333,16.5166667 4.78,17.59 C4.94,17.7166667 5.12,17.7733333 5.32,17.76 C5.52,17.7466667 5.69,17.6666667 5.83,17.52 C5.95666667,17.36 6.01333333,17.1766667 6,16.97 C5.98666667,16.7633333 5.9,16.5866667 5.74,16.44 C4.63333333,15.5133333 3.77666667,14.4 3.17,13.1 C2.56333333,11.8066667 2.26,10.44 2.26,9 C2.26,7.56 2.56333333,6.18666667 3.17,4.88 C3.77666667,3.58 4.64,2.46666667 5.76,1.54 C5.90666667,1.39333333 5.99,1.21666667 6.01,1.01 C6.03666667,0.803333333 5.97666667,0.626666667 5.83,0.48 C5.70333333,0.32 5.53666667,0.233333333 5.33,0.22 C5.12333333,0.2 4.94,0.253333333 4.78,0.38 C3.51333333,1.45333333 2.52666667,2.74333333 1.82,4.25 C1.12,5.75 0.77,7.33333333 0.77,9 Z M18.17,17.5 C18.2966667,17.66 18.4633333,17.7466667 18.67,17.76 C18.8766667,17.7733333 19.06,17.7166667 19.22,17.59 C20.0733333,16.89 20.8,16.0833333 21.4,15.17 C22,14.2566667 22.4533333,13.2766667 22.76,12.23 C23.0733333,11.1833333 23.23,10.1066667 23.23,9 C23.23,7.89333333 23.0733333,6.81666667 22.76,5.77 C22.4533333,4.72333333 22,3.74 21.4,2.82 C20.8,1.9 20.0733333,1.08666667 19.22,0.38 C19.06,0.253333333 18.8766667,0.2 18.67,0.22 C18.4633333,0.233333333 18.2966667,0.32 18.17,0.48 C18.0233333,0.64 17.96,0.823333333 17.98,1.03 C17.9933333,1.23666667 18.08,1.40666667 18.24,1.54 C18.9733333,2.14666667 19.6,2.85 20.12,3.65 C20.64,4.45 21.0366667,5.3 21.31,6.2 C21.5833333,7.10666667 21.72,8.04 21.72,9 C21.72,9.96 21.5833333,10.8933333 21.31,11.8 C21.0366667,12.7 20.6466667,13.5466667 20.14,14.34 C19.6266667,15.1333333 19,15.8333333 18.26,16.44 C18.1,16.5666667 18.0133333,16.7333333 18,16.94 C17.9866667,17.1533333 18.0433333,17.34 18.17,17.5 Z" id="形状"></path>
            </g>
        </g>
    </g>
</svg>