<?xml version="1.0" encoding="UTF-8"?>
<svg width="24px" height="24px" viewBox="0 0 24 24" version="1.1" xmlns="http://www.w3.org/2000/svg" xmlns:xlink="http://www.w3.org/1999/xlink">
    <title>svg粗图标</title>
    <g id="粗图标" stroke="none" stroke-width="1" fill="none" fill-rule="evenodd">
        <g id="dot_radiowaves_left_and_right备份-2" fill="#000000" fill-rule="nonzero">
            <rect id="矩形" opacity="0" x="0" y="0" width="24" height="24"></rect>
            <g id="编组" transform="translate(0.000000, 2.000000)">
                <path d="M5.21539836,0.966887092 L5.34609557,0.970518673 C5.58351392,0.985835985 5.78799194,1.07671595 5.93699966,1.22461062 L6.0067767,1.3032233 C6.2083158,1.50476241 6.294515,1.75857117 6.2588375,2.03408105 C6.23325373,2.29844666 6.12445642,2.52909697 5.91936846,2.732618 C4.82782845,3.63573741 3.9874844,4.71942434 3.39675224,5.98527783 C2.80539787,7.25896416 2.51,8.59636991 2.51,10 C2.51,11.4033784 2.80528674,12.7337912 3.39654578,13.9942786 C3.98772384,15.2610888 4.82182558,16.3450965 5.90893116,17.2557115 C6.1158615,17.4453976 6.23194039,17.68202 6.24948133,17.9539044 C6.26678177,18.2220613 6.19123755,18.4664691 6.01083889,18.6926189 C5.82777984,18.8843951 5.59925065,18.9919382 5.33662975,19.0094463 C5.07440422,19.026928 4.83323722,18.951005 4.61837948,18.7807323 C3.32457074,17.6843996 2.31594735,16.3725077 1.59363527,14.8461085 C0.878026576,13.3194766 0.52,11.7032423 0.52,10 C0.52,8.29686712 0.877978369,6.67744116 1.59365933,5.14384022 C2.31556571,3.60468132 3.32429914,2.28583053 4.62482426,1.18398854 C4.71944773,1.1090783 4.82193342,1.05289902 4.93947303,1.01497454 L5.06229697,0.983117347 L5.17789697,0.968717347 L5.21539836,0.966887092 Z M18.645919,0.971162497 C18.8714964,0.949332426 19.0810648,0.995722371 19.2667174,1.10842483 L19.3751757,1.18398854 L19.697781,1.46126685 C20.4359672,2.11987572 21.0723543,2.85995894 21.6094026,3.68343305 C22.2227356,4.62387687 22.6863603,5.62953353 22.9994985,6.69830299 C23.3198185,7.76830812 23.48,8.86912976 23.48,10 C23.48,11.1308702 23.3198185,12.2316919 22.9999142,13.3002933 C22.6862907,14.3707041 22.2225179,15.3732719 21.6089464,16.307264 C20.9950412,17.2417641 20.2513709,18.0673063 19.3751757,18.7860115 C19.1664691,18.9512375 18.9220613,19.0267818 18.6539044,19.0094813 C18.3769164,18.9916111 18.1447637,18.8708918 17.9739885,18.6551757 C17.8085255,18.4461698 17.7333532,18.1985434 17.7505187,17.9239044 C17.7683889,17.6469164 17.8891082,17.4147637 18.1015009,17.246666 C18.8215608,16.6563466 19.4308716,15.9757335 19.9293036,15.2054376 C20.4236856,14.4313395 20.8040904,13.6055036 21.0706405,12.7278402 C21.3368937,11.844659 21.47,10.9356401 21.47,10 C21.47,9.06435986 21.3368937,8.15534098 21.0707887,7.27264937 C20.8043091,6.39521666 20.4176285,5.56661541 19.9103891,4.78624709 C19.4041799,4.00746377 18.7944545,3.32314428 18.0799539,2.73205532 C17.8673538,2.55488858 17.7482744,2.32130979 17.7311625,2.05408105 C17.7042437,1.77592066 17.7917222,1.52269346 17.9739885,1.32482426 C18.1447637,1.10910824 18.3769164,0.988388871 18.645919,0.971162497 Z M15.0149348,3.94613975 C15.251791,3.89265609 15.4806554,3.92536615 15.6905548,4.04089691 L15.7853349,4.09979899 C16.793635,4.74897851 17.5825831,5.59329138 18.1499763,6.63121277 C18.7098192,7.66795884 18.99,8.79214096 18.99,10 C18.99,10.7943645 18.8620638,11.5619819 18.6062728,12.3017018 C18.350501,13.0413659 17.9803923,13.7193221 17.4967346,14.3342578 C17.019868,14.9424355 16.4497111,15.4642155 15.7618034,15.9136068 C15.4823109,16.053353 15.2154447,16.0927267 14.9793661,16.0225356 C14.7303259,15.9602756 14.5278702,15.811808 14.3784418,15.5832033 C14.2283467,15.344817 14.187053,15.0832903 14.2565397,14.8231926 C14.3080259,14.6025376 14.4210324,14.4201989 14.5883711,14.2848982 L14.6952366,14.2094321 C15.1716332,13.9045383 15.5840695,13.5301731 15.9334204,13.0855446 C16.2833622,12.6401641 16.5501058,12.1574853 16.7339911,11.6375391 C16.9180342,11.1107951 17.01,10.5653427 17.01,10 C17.01,9.14890676 16.8040345,8.35039418 16.3910244,7.60062214 C16.0693137,7.01659338 15.6559883,6.51813701 15.1535746,6.10647935 L14.9328074,5.93537243 L14.6767967,5.75155821 C14.4404242,5.6027311 14.2892609,5.39201853 14.2351849,5.1306514 C14.1816078,4.87169567 14.2317221,4.62112425 14.3784418,4.39679668 C14.5271281,4.16064789 14.7434025,4.00745349 15.0149348,3.94613975 Z M8.79432974,3.92249442 L8.83783717,3.92509913 L8.9768074,3.9465397 C9.24352096,4.00877286 9.45384754,4.16423164 9.5892424,4.39318766 C9.73828545,4.62113584 9.7880522,4.87449387 9.73514517,5.13902903 C9.68193315,5.40508914 9.53604849,5.61935723 9.30528178,5.7702352 C8.57381362,6.24091906 8.00627423,6.84967639 7.59975796,7.59919076 C7.19292897,8.34928171 6.99,9.14831454 6.99,10 C6.99,10.8508603 7.19584538,11.6457402 7.60809444,12.3877919 C8.02192337,13.1263174 8.5878191,13.7335426 9.30867505,14.2119874 C9.52255089,14.3545713 9.66260835,14.5623985 9.7234603,14.8231926 C9.78545903,15.0889014 9.74013987,15.3472207 9.59291458,15.5810244 C9.45120396,15.8113041 9.2415934,15.9616769 8.98441566,16.0215587 C8.71670968,16.092947 8.45518302,16.0516533 8.2146651,15.900201 C7.20645702,15.2510807 6.41430938,14.4035865 5.8409154,13.360424 C5.26727928,12.3168209 4.98,11.1953934 4.98,10 C4.98,8.79121759 5.2673092,7.66621168 5.84125463,6.6289609 C6.41466266,5.59268132 7.20670235,4.74876131 8.20612665,4.1055484 C8.31179001,4.0311927 8.42289647,3.97860611 8.54793406,3.94840748 L8.67792974,3.92569442 L8.79432974,3.92249442 Z M12,7.76 C12.6249657,7.76 13.1613818,7.97532198 13.5983071,8.40476712 C14.024678,8.83861819 14.24,9.37503434 14.24,10 C14.24,10.6261797 14.0170827,11.1664707 13.5782811,11.6052594 C13.144731,12.0462845 12.6138806,12.27 12,12.27 C11.3863816,12.27 10.8496649,12.0432183 10.4032233,11.5967767 C9.95678167,11.1503351 9.73,10.6136184 9.73,10 C9.73,9.38611935 9.9537155,8.85526902 10.3932233,8.4232233 C10.8335293,7.98291727 11.3738203,7.76 12,7.76 Z" id="形状结合"></path>
            </g>
        </g>
    </g>
</svg>